#N canvas 581 334 871 519 12;
#X obj 179 51 inlet;
#X text 66 16 input sig;
#X text 174 30 resonance;
#X obj 321 50 inlet;
#X text 321 23 decay;
#X obj 462 47 inlet;
#X text 452 26 distortion;
#X obj 84 48 inlet~;
#X obj 374 487 outlet~;
#X obj 611 54 inlet;
#X text 615 27 cutoff;
#X obj 725 54 inlet;
#X text 717 30 velocity;
#X obj 538 176 sel 1;
#X obj 526 126 expr if ($i1 > 0 \, 1 \, 0);
#X obj 535 258 line;
#X obj 328 125 int;
#X obj 424 127 int;
#X obj 371 167 pack;
#X msg 367 207 \$1 \, 20 \$2;
#X obj 273 229 vcf~;
#X obj 503 292 sig~;
#X obj 320 371 clip~ -1 1;
#X obj 388 304 / 100;
#X obj 335 309 / -100;
#X obj 778 104 inlet;
#X text 759 82 pre-dist amp;
#X obj 716 219 / 100;
#X obj 176 170 *~ 0;
#X obj 346 421 *~ 0;
#X obj 800 227 inlet;
#X text 765 193 post-dist amp;
#X obj 772 298 / 100;
#X obj 355 448 hip~ 20;
#X connect 0 0 20 2;
#X connect 3 0 16 1;
#X connect 5 0 23 0;
#X connect 5 0 24 0;
#X connect 7 0 28 0;
#X connect 9 0 17 1;
#X connect 11 0 14 0;
#X connect 13 0 16 0;
#X connect 13 0 17 0;
#X connect 14 0 13 0;
#X connect 15 0 21 0;
#X connect 16 0 18 1;
#X connect 17 0 18 0;
#X connect 18 0 19 0;
#X connect 19 0 15 0;
#X connect 20 1 22 0;
#X connect 21 0 20 1;
#X connect 22 0 29 0;
#X connect 23 0 22 2;
#X connect 24 0 22 1;
#X connect 25 0 27 0;
#X connect 27 0 28 1;
#X connect 28 0 20 0;
#X connect 29 0 33 0;
#X connect 30 0 32 0;
#X connect 32 0 29 1;
#X connect 33 0 8 0;
