#N canvas 554 84 1125 748 12;
#X obj 57 31 inlet~;
#X obj 249 671 outlet~;
#X obj 245 27 inlet;
#X obj 387 26 inlet;
#X obj 526 24 inlet;
#X obj 680 23 inlet;
#X text 233 8 attack;
#X text 379 6 decay;
#X text 512 8 sustain;
#X text 673 6 release;
#X text 22 10 input signal;
#X obj 933 28 inlet;
#X text 927 5 velocity;
#X obj 901 168 expr if ($i1 == 0 \, 1 \, 0);
#X obj 913 218 sel 1;
#X obj 743 218 sel 1;
#X obj 730 168 expr if ($i1 > 0 \, 1 \, 0);
#X obj 284 205 pack;
#X obj 448 196 / 100;
#X obj 510 122 int;
#X obj 173 57 int;
#X obj 656 148 int;
#X obj 284 138 float;
#X obj 154 148 line;
#X obj 157 292 line;
#X obj 210 491 line;
#X msg 138 113 0 \, 1 \$1;
#X msg 161 239 1 \, \$1 \$2;
#X obj 220 186 sel 1;
#X obj 114 183 *~ 0;
#X obj 165 446 *~ 0;
#X obj 146 554 *~ 0;
#X obj 605 425 int 0;
#X obj 220 358 pack;
#X msg 276 448 \$2 \, 0 \$1;
#X obj 431 288 int 1;
#X obj 562 350 int 0;
#X obj 225 567 *~ 1;
#X connect 0 0 29 0;
#X connect 0 0 31 0;
#X connect 2 0 20 1;
#X connect 3 0 19 1;
#X connect 4 0 18 0;
#X connect 5 0 21 1;
#X connect 11 0 13 0;
#X connect 11 0 16 0;
#X connect 13 0 14 0;
#X connect 14 0 21 0;
#X connect 14 0 32 0;
#X connect 15 0 20 0;
#X connect 15 0 35 0;
#X connect 15 0 36 0;
#X connect 16 0 15 0;
#X connect 17 0 27 0;
#X connect 18 0 22 1;
#X connect 19 0 17 1;
#X connect 20 0 26 0;
#X connect 21 0 33 0;
#X connect 22 0 17 0;
#X connect 23 0 29 1;
#X connect 23 0 28 0;
#X connect 24 0 30 1;
#X connect 24 0 33 1;
#X connect 25 0 31 1;
#X connect 26 0 23 0;
#X connect 27 0 24 0;
#X connect 28 0 19 0;
#X connect 28 0 22 0;
#X connect 29 0 30 0;
#X connect 30 0 37 0;
#X connect 31 0 1 0;
#X connect 32 0 37 1;
#X connect 33 0 34 0;
#X connect 34 0 25 0;
#X connect 35 0 30 1;
#X connect 35 0 37 1;
#X connect 36 0 31 1;
#X connect 37 0 1 0;
