#N canvas 851 218 701 587 12;
#X obj 155 44 inlet;
#X obj 269 42 inlet;
#X text 76 17 sine;
#X text 261 21 square;
#X text 375 23 frequency;
#X obj 116 141 osc~ 0, f 7;
#X obj 379 48 inlet;
#X obj 469 41 inlet;
#X text 478 16 volume;
#X obj 333 495 outlet~;
#X obj 87 42 inlet;
#X obj 294 372 *~ 0;
#X text 152 17 saw;
#X obj 228 141 phasor~ 0;
#X obj 244 195 -~ 0.5;
#X obj 253 239 *~ 2;
#X obj 314 173 expr~ $v1 > 0.5;
#X obj 320 207 -~ 0.5;
#X obj 329 251 *~ 2;
#X obj 496 137 / 100;
#X obj 149 259 *~ 0;
#X obj 258 279 *~ 0;
#X obj 315 283 *~ 0;
#X obj 276 326 *~ 0.3;
#X connect 0 0 21 1;
#X connect 1 0 22 1;
#X connect 5 0 20 0;
#X connect 6 0 5 0;
#X connect 6 0 13 0;
#X connect 7 0 19 0;
#X connect 10 0 20 1;
#X connect 11 0 9 0;
#X connect 13 0 14 0;
#X connect 13 0 16 0;
#X connect 14 0 15 0;
#X connect 15 0 21 0;
#X connect 16 0 17 0;
#X connect 17 0 18 0;
#X connect 18 0 22 0;
#X connect 19 0 11 1;
#X connect 20 0 23 0;
#X connect 21 0 23 0;
#X connect 22 0 23 0;
#X connect 23 0 11 0;
